<svg width="188" height="334" viewBox="0 0 188 334" fill="none" xmlns="http://www.w3.org/2000/svg">
<path fill-rule="evenodd" clip-rule="evenodd" d="M94.5027 107C101.721 107 107.572 101.18 107.572 94C107.572 86.8203 101.721 81 94.5027 81C87.2846 81 81.4332 86.8203 81.4332 94C81.4332 101.18 87.2846 107 94.5027 107ZM94.5027 103C99.4998 103 103.551 98.9706 103.551 94C103.551 89.0294 99.4998 85 94.5027 85C89.5055 85 85.4545 89.0294 85.4545 94C85.4545 98.9706 89.5055 103 94.5027 103Z" fill="#578DB2"/>
<mask id="path-2-inside-1_6_40" fill="white">
<path fill-rule="evenodd" clip-rule="evenodd" d="M88.4706 24C87.366 24 86.4599 24.8954 86.4599 26V78.9962C87.7151 78.3291 89.0637 77.8133 90.4813 77.4733V26C90.4813 24.8954 89.5752 24 88.4706 24ZM90.4813 110.527C89.0637 110.187 87.7151 109.671 86.4599 109.004V332C86.4599 333.105 87.366 334 88.4706 334C89.5752 334 90.4813 333.105 90.4813 332V110.527Z"/>
</mask>
<path fill-rule="evenodd" clip-rule="evenodd" d="M88.4706 24C87.366 24 86.4599 24.8954 86.4599 26V78.9962C87.7151 78.3291 89.0637 77.8133 90.4813 77.4733V26C90.4813 24.8954 89.5752 24 88.4706 24ZM90.4813 110.527C89.0637 110.187 87.7151 109.671 86.4599 109.004V332C86.4599 333.105 87.366 334 88.4706 334C89.5752 334 90.4813 333.105 90.4813 332V110.527Z" fill="#578DB2"/>
<path d="M86.4599 78.9962H85.4599V80.6601L86.9292 79.8792L86.4599 78.9962ZM90.4813 77.4733L90.7146 78.4457L91.4813 78.2617V77.4733H90.4813ZM90.4813 110.527H91.4813V109.738L90.7146 109.554L90.4813 110.527ZM86.4599 109.004L86.9292 108.121L85.4599 107.34V109.004H86.4599ZM87.4599 26C87.4599 25.4546 87.9114 25 88.4706 25V23C86.8207 23 85.4599 24.3362 85.4599 26H87.4599ZM87.4599 78.9962V26H85.4599V78.9962H87.4599ZM86.9292 79.8792C88.1108 79.2512 89.3803 78.7657 90.7146 78.4457L90.248 76.5008C88.7472 76.8609 87.3193 77.407 85.9906 78.1132L86.9292 79.8792ZM89.4813 26V77.4733H91.4813V26H89.4813ZM88.4706 25C89.0298 25 89.4813 25.4546 89.4813 26H91.4813C91.4813 24.3362 90.1205 23 88.4706 23V25ZM90.7146 109.554C89.3803 109.234 88.1108 108.749 86.9292 108.121L85.9906 109.887C87.3193 110.593 88.7472 111.139 90.248 111.499L90.7146 109.554ZM87.4599 332V109.004H85.4599V332H87.4599ZM88.4706 333C87.9114 333 87.4599 332.545 87.4599 332H85.4599C85.4599 333.664 86.8207 335 88.4706 335V333ZM89.4813 332C89.4813 332.545 89.0298 333 88.4706 333V335C90.1205 335 91.4813 333.664 91.4813 332H89.4813ZM89.4813 110.527V332H91.4813V110.527H89.4813Z" fill="#578DB2" mask="url(#path-2-inside-1_6_40)"/>
<mask id="path-4-inside-2_6_40" fill="white">
<path fill-rule="evenodd" clip-rule="evenodd" d="M77.8876 98H19.0909C17.9863 98 17.0909 98.8954 17.0909 100C17.0909 101.105 17.9863 102 19.0909 102H79.4186C78.748 100.752 78.2294 99.41 77.8876 98ZM109.587 102H169.914C171.019 102 171.914 101.105 171.914 100C171.914 98.8954 171.019 98 169.914 98H111.118C110.776 99.41 110.257 100.752 109.587 102Z"/>
</mask>
<path fill-rule="evenodd" clip-rule="evenodd" d="M77.8876 98H19.0909C17.9863 98 17.0909 98.8954 17.0909 100C17.0909 101.105 17.9863 102 19.0909 102H79.4186C78.748 100.752 78.2294 99.41 77.8876 98ZM109.587 102H169.914C171.019 102 171.914 101.105 171.914 100C171.914 98.8954 171.019 98 169.914 98H111.118C110.776 99.41 110.257 100.752 109.587 102Z" fill="#578DB2"/>
<path d="M77.8876 98L78.8594 97.7644L78.6741 97H77.8876V98ZM79.4186 102V103H81.091L80.2996 101.527L79.4186 102ZM109.587 102L108.706 101.527L107.914 103H109.587V102ZM111.118 98V97H110.331L110.146 97.7644L111.118 98ZM19.0909 99H77.8876V97H19.0909V99ZM18.0909 100C18.0909 99.4477 18.5386 99 19.0909 99V97C17.4341 97 16.0909 98.3431 16.0909 100H18.0909ZM19.0909 101C18.5386 101 18.0909 100.552 18.0909 100H16.0909C16.0909 101.657 17.4341 103 19.0909 103V101ZM79.4186 101H19.0909V103H79.4186V101ZM80.2996 101.527C79.6686 100.352 79.1809 99.0904 78.8594 97.7644L76.9157 98.2356C77.278 99.7297 77.8274 101.151 78.5377 102.473L80.2996 101.527ZM169.914 101H109.587V103H169.914V101ZM170.914 100C170.914 100.552 170.467 101 169.914 101V103C171.571 103 172.914 101.657 172.914 100H170.914ZM169.914 99C170.467 99 170.914 99.4477 170.914 100H172.914C172.914 98.3431 171.571 97 169.914 97V99ZM111.118 99H169.914V97H111.118V99ZM110.146 97.7644C109.824 99.0904 109.337 100.352 108.706 101.527L110.468 102.473C111.178 101.151 111.727 99.7297 112.09 98.2356L110.146 97.7644Z" fill="#578DB2" mask="url(#path-4-inside-2_6_40)"/>
<mask id="path-6-inside-3_6_40" fill="white">
<path fill-rule="evenodd" clip-rule="evenodd" d="M77.8876 90C78.2294 88.59 78.748 87.2485 79.4186 86H2C0.89543 86 0 86.8954 0 88C0 89.1046 0.89543 90 2 90H77.8876ZM111.118 90H186C187.105 90 188 89.1046 188 88C188 86.8954 187.105 86 186 86H109.587C110.257 87.2485 110.776 88.59 111.118 90Z"/>
</mask>
<path fill-rule="evenodd" clip-rule="evenodd" d="M77.8876 90C78.2294 88.59 78.748 87.2485 79.4186 86H2C0.89543 86 0 86.8954 0 88C0 89.1046 0.89543 90 2 90H77.8876ZM111.118 90H186C187.105 90 188 89.1046 188 88C188 86.8954 187.105 86 186 86H109.587C110.257 87.2485 110.776 88.59 111.118 90Z" fill="#578DB2"/>
<path d="M77.8876 90V91H78.6741L78.8594 90.2356L77.8876 90ZM79.4186 86L80.2996 86.4732L81.091 85H79.4186V86ZM111.118 90L110.146 90.2356L110.331 91H111.118V90ZM109.587 86V85H107.914L108.706 86.4732L109.587 86ZM78.8594 90.2356C79.1809 88.9096 79.6686 87.6479 80.2996 86.4732L78.5377 85.5268C77.8274 86.8491 77.278 88.2703 76.9157 89.7644L78.8594 90.2356ZM2 87H79.4186V85H2V87ZM1 88C1 87.4477 1.44772 87 2 87V85C0.343146 85 -1 86.3431 -1 88H1ZM2 89C1.44772 89 1 88.5523 1 88H-1C-1 89.6569 0.343145 91 2 91V89ZM77.8876 89H2V91H77.8876V89ZM186 89H111.118V91H186V89ZM187 88C187 88.5523 186.552 89 186 89V91C187.657 91 189 89.6569 189 88H187ZM186 87C186.552 87 187 87.4477 187 88H189C189 86.3431 187.657 85 186 85V87ZM109.587 87H186V85H109.587V87ZM108.706 86.4732C109.337 87.6479 109.824 88.9096 110.146 90.2356L112.09 89.7644C111.727 88.2703 111.178 86.8491 110.468 85.5268L108.706 86.4732Z" fill="#578DB2" mask="url(#path-6-inside-3_6_40)"/>
<mask id="path-8-inside-4_6_40" fill="white">
<path fill-rule="evenodd" clip-rule="evenodd" d="M100.535 0C99.4302 0 98.5241 0.895429 98.5241 2V77.4733C99.9416 77.8133 101.29 78.3291 102.545 78.9962V2C102.545 0.895431 101.639 0 100.535 0ZM102.545 109.004C101.29 109.671 99.9416 110.187 98.5241 110.527V308C98.5241 309.105 99.4302 310 100.535 310C101.639 310 102.545 309.105 102.545 308V109.004Z"/>
</mask>
<path fill-rule="evenodd" clip-rule="evenodd" d="M100.535 0C99.4302 0 98.5241 0.895429 98.5241 2V77.4733C99.9416 77.8133 101.29 78.3291 102.545 78.9962V2C102.545 0.895431 101.639 0 100.535 0ZM102.545 109.004C101.29 109.671 99.9416 110.187 98.5241 110.527V308C98.5241 309.105 99.4302 310 100.535 310C101.639 310 102.545 309.105 102.545 308V109.004Z" fill="#578DB2"/>
<path d="M98.5241 77.4733H97.5241V78.2617L98.2908 78.4457L98.5241 77.4733ZM102.545 78.9962L102.076 79.8792L103.545 80.6601V78.9962H102.545ZM102.545 109.004H103.545V107.34L102.076 108.121L102.545 109.004ZM98.5241 110.527L98.2908 109.554L97.5241 109.738V110.527H98.5241ZM99.5241 2C99.5241 1.45464 99.9755 1 100.535 1V-1C98.8849 -1 97.5241 0.336216 97.5241 2H99.5241ZM99.5241 77.4733V2H97.5241V77.4733H99.5241ZM98.2908 78.4457C99.6251 78.7657 100.895 79.2512 102.076 79.8792L103.015 78.1132C101.686 77.407 100.258 76.8609 98.7573 76.5008L98.2908 78.4457ZM101.545 2V78.9962H103.545V2H101.545ZM100.535 1C101.094 1 101.545 1.45464 101.545 2H103.545C103.545 0.336219 102.185 -1 100.535 -1V1ZM102.076 108.121C100.895 108.749 99.6251 109.234 98.2908 109.554L98.7573 111.499C100.258 111.139 101.686 110.593 103.015 109.887L102.076 108.121ZM99.5241 308V110.527H97.5241V308H99.5241ZM100.535 309C99.9755 309 99.5241 308.545 99.5241 308H97.5241C97.5241 309.664 98.8849 311 100.535 311V309ZM101.545 308C101.545 308.545 101.094 309 100.535 309V311C102.185 311 103.545 309.664 103.545 308H101.545ZM101.545 109.004V308H103.545V109.004H101.545Z" fill="#578DB2" mask="url(#path-8-inside-4_6_40)"/>
</svg>
