<svg width="328" height="333" viewBox="0 0 328 333" fill="none" xmlns="http://www.w3.org/2000/svg">
<path fill-rule="evenodd" clip-rule="evenodd" d="M150.399 332.418C150.421 332.42 150.444 332.422 150.467 332.424C152.763 332.613 155.073 332.757 157.394 332.853V192.264C154.928 191.672 152.582 190.775 150.399 189.614V332.418ZM171.385 332.862C171.441 332.86 171.497 332.857 171.554 332.855C173.841 332.761 176.117 332.621 178.38 332.437V189.614C176.197 190.775 173.85 191.672 171.385 192.264V332.862ZM164.389 186.129C176.945 186.129 187.124 176.004 187.124 163.515C187.124 151.026 176.945 140.901 164.389 140.901C151.833 140.901 141.655 151.026 141.655 163.515C141.655 176.004 151.833 186.129 164.389 186.129ZM164.389 179.171C173.082 179.171 180.129 172.161 180.129 163.515C180.129 154.869 173.082 147.859 164.389 147.859C155.697 147.859 148.65 154.869 148.65 163.515C148.65 172.161 155.697 179.171 164.389 179.171ZM150.399 43.7485C150.399 42.6439 151.294 41.7485 152.399 41.7485H155.394C156.499 41.7485 157.394 42.6439 157.394 43.7485V134.766C154.928 135.358 152.582 136.255 150.399 137.415V43.7485ZM135.487 170.473H31.73C30.6255 170.473 29.73 171.368 29.73 172.473V175.431C29.73 176.536 30.6255 177.431 31.73 177.431H138.151C136.984 175.259 136.082 172.926 135.487 170.473ZM190.629 177.431H297.049C298.153 177.431 299.049 176.536 299.049 175.431V172.473C299.049 171.368 298.153 170.473 297.049 170.473H193.292C192.697 172.926 191.795 175.259 190.629 177.431ZM138.15 149.599C136.984 151.771 136.082 154.104 135.487 156.557H1.99999C0.89542 156.557 0 155.661 0 154.557V151.599C0 150.494 0.895431 149.599 2 149.599H138.15ZM325.03 156.557H193.292C192.697 154.104 191.795 151.771 190.628 149.599H325.03C326.135 149.599 327.03 150.494 327.03 151.599V154.557C327.03 155.661 326.135 156.557 325.03 156.557ZM173.385 0C172.28 0 171.385 0.895428 171.385 2V134.766C173.85 135.358 176.197 136.255 178.38 137.416V2C178.38 0.895432 177.484 0 176.38 0H173.385Z" fill="#578DB2"/>
</svg>
